<svg xmlns="http://www.w3.org/2000/svg" viewBox="0 0 1200 800" width="1200" height="800" role="img" aria-label="北京市门头沟区灵水景区">
  <title>北京市门头沟区灵水景区</title>
  <desc>自绘示意图, 不代表实景</desc>
  <defs>
    <linearGradient id="sky" x1="0" y1="0" x2="0" y2="1">
      <stop offset="0" stop-color="#1b2823"/>
      <stop offset="1" stop-color="#425e48"/>
    </linearGradient>
  </defs>
  <rect width="1200" height="800" fill="url(#sky)"/>
  <circle cx="569.3" cy="435.4" r="50.4" fill="#e0b85e" opacity="0.88"/>
  <polygon points="-40.0,800.0 88.0,423.9 216.0,537.6 344.0,474.5 472.0,547.7 600.0,467.1 728.0,546.2 856.0,427.9 984.0,538.4 1112.0,474.5 1240.0,547.7 1368.0,426.3 1496.0,538.1 1240.0,800.0" fill="#304738"/>
  <polygon points="-40.0,800.0 120.0,541.5 280.0,609.1 440.0,548.9 600.0,610.6 760.0,546.4 920.0,610.1 1080.0,554.8 1240.0,611.8 1400.0,555.6 1560.0,611.9 1240.0,800.0" fill="#223329"/>
  <rect x="0" y="660" width="1200" height="140" fill="#15221c"/>
  <polygon points="-40.0,800.0 66.7,634.2 173.3,686.8 280.0,641.1 386.7,688.2 493.3,641.8 600.0,688.4 706.7,640.4 813.3,688.1 920.0,616.5 1026.7,683.3 1133.3,625.2 1240.0,685.0 1346.7,609.9 1453.3,682.0 1240.0,800.0" fill="#15221c" opacity="0.6"/>
  <rect x="0" y="702" width="1200" height="3" fill="#e0b85e" opacity="0.28"/>
  <g>
    <rect x="160" y="162" width="880" height="188" rx="24" fill="#000000" opacity="0.38"/>
    <text x="600" y="208" text-anchor="middle" font-family="'PingFang SC','Microsoft YaHei','Hiragino Sans GB',sans-serif" font-size="27"
          fill="#e0b85e" letter-spacing="7">A 级景区</text>
    <text x="600" y="274" text-anchor="middle" font-family="'PingFang SC','Microsoft YaHei','Hiragino Sans GB',sans-serif" font-size="76"
          font-weight="700" fill="#f4f5f7">北京市门头沟区灵水景区</text>
    <text x="600" y="322" text-anchor="middle" font-family="'PingFang SC','Microsoft YaHei','Hiragino Sans GB',sans-serif" font-size="21"
          fill="#a7adb8" letter-spacing="2">自绘示意图 · 不代表实景</text>
  </g>
</svg>
