<svg xmlns="http://www.w3.org/2000/svg" viewBox="0 0 1200 800" width="1200" height="800" role="img" aria-label="潮州市潮安区基泰中草药文化旅游区">
  <title>潮州市潮安区基泰中草药文化旅游区</title>
  <desc>自绘示意图, 不代表实景</desc>
  <defs>
    <linearGradient id="sky" x1="0" y1="0" x2="0" y2="1">
      <stop offset="0" stop-color="#1a2822"/>
      <stop offset="1" stop-color="#3f5e46"/>
    </linearGradient>
  </defs>
  <rect width="1200" height="800" fill="url(#sky)"/>
  <circle cx="649.8" cy="462.0" r="40.1" fill="#e0b453" opacity="0.88"/>
  <polygon points="-40.0,800.0 88.0,434.3 216.0,539.7 344.0,483.2 472.0,549.4 600.0,437.2 728.0,540.2 856.0,448.3 984.0,542.5 1112.0,422.1 1240.0,537.2 1368.0,433.2 1496.0,539.4 1240.0,800.0" fill="#2e4736"/>
  <polygon points="-40.0,800.0 120.0,559.3 280.0,612.7 440.0,553.2 600.0,611.4 760.0,530.5 920.0,606.9 1080.0,551.1 1240.0,611.0 1400.0,542.5 1560.0,609.3 1240.0,800.0" fill="#203328"/>
  <rect x="0" y="660" width="1200" height="140" fill="#14221b"/>
  <polygon points="-40.0,800.0 66.7,620.9 173.3,684.2 280.0,638.1 386.7,687.6 493.3,630.9 600.0,686.2 706.7,646.2 813.3,689.2 920.0,632.5 1026.7,686.5 1133.3,625.5 1240.0,685.1 1346.7,646.7 1453.3,689.3 1240.0,800.0" fill="#14221b" opacity="0.6"/>
  <rect x="0" y="702" width="1200" height="3" fill="#e0b453" opacity="0.28"/>
  <g>
    <rect x="160" y="162" width="880" height="188" rx="24" fill="#000000" opacity="0.38"/>
    <text x="600" y="208" text-anchor="middle" font-family="'PingFang SC','Microsoft YaHei','Hiragino Sans GB',sans-serif" font-size="27"
          fill="#e0b453" letter-spacing="7">A 级景区</text>
    <text x="600" y="274" text-anchor="middle" font-family="'PingFang SC','Microsoft YaHei','Hiragino Sans GB',sans-serif" font-size="52"
          font-weight="700" fill="#f4f5f7">潮州市潮安区基泰中草药文化旅游区</text>
    <text x="600" y="322" text-anchor="middle" font-family="'PingFang SC','Microsoft YaHei','Hiragino Sans GB',sans-serif" font-size="21"
          fill="#a7adb8" letter-spacing="2">自绘示意图 · 不代表实景</text>
  </g>
</svg>
