<svg xmlns="http://www.w3.org/2000/svg" viewBox="0 0 1200 800" width="1200" height="800" role="img" aria-label="汕头市中山公园">
  <title>汕头市中山公园</title>
  <desc>自绘示意图, 不代表实景</desc>
  <defs>
    <linearGradient id="sky" x1="0" y1="0" x2="0" y2="1">
      <stop offset="0" stop-color="#1b2825"/>
      <stop offset="1" stop-color="#425e4f"/>
    </linearGradient>
  </defs>
  <rect width="1200" height="800" fill="url(#sky)"/>
  <circle cx="410.5" cy="432.5" r="51.7" fill="#e0d55f" opacity="0.88"/>
  <polygon points="-40.0,800.0 88.0,442.2 216.0,541.2 344.0,458.9 472.0,544.6 600.0,447.2 728.0,542.2 856.0,441.7 984.0,541.1 1112.0,443.0 1240.0,541.4 1368.0,431.6 1496.0,539.1 1240.0,800.0" fill="#30473d"/>
  <polygon points="-40.0,800.0 120.0,543.6 280.0,609.5 440.0,528.2 600.0,606.4 760.0,521.7 920.0,605.1 1080.0,557.3 1240.0,612.3 1400.0,532.7 1560.0,607.3 1240.0,800.0" fill="#22332d"/>
  <rect x="0" y="660" width="1200" height="140" fill="#15221f"/>
  <polygon points="-40.0,800.0 66.7,613.7 173.3,682.7 280.0,643.1 386.7,688.6 493.3,622.8 600.0,684.6 706.7,624.0 813.3,684.8 920.0,620.6 1026.7,684.1 1133.3,607.4 1240.0,681.5 1346.7,605.2 1453.3,681.0 1240.0,800.0" fill="#15221f" opacity="0.6"/>
  <rect x="0" y="702" width="1200" height="3" fill="#e0d55f" opacity="0.28"/>
  <g>
    <rect x="160" y="162" width="880" height="188" rx="24" fill="#000000" opacity="0.38"/>
    <text x="600" y="208" text-anchor="middle" font-family="'PingFang SC','Microsoft YaHei','Hiragino Sans GB',sans-serif" font-size="27"
          fill="#e0d55f" letter-spacing="7">A 级景区</text>
    <text x="600" y="274" text-anchor="middle" font-family="'PingFang SC','Microsoft YaHei','Hiragino Sans GB',sans-serif" font-size="84"
          font-weight="700" fill="#f4f5f7">汕头市中山公园</text>
    <text x="600" y="322" text-anchor="middle" font-family="'PingFang SC','Microsoft YaHei','Hiragino Sans GB',sans-serif" font-size="21"
          fill="#a7adb8" letter-spacing="2">自绘示意图 · 不代表实景</text>
  </g>
</svg>
