<svg xmlns="http://www.w3.org/2000/svg" viewBox="0 0 1200 800" width="1200" height="800" role="img" aria-label="云浮市罗定喜来谷动植物生态园">
  <title>云浮市罗定喜来谷动植物生态园</title>
  <desc>自绘示意图, 不代表实景</desc>
  <defs>
    <linearGradient id="sky" x1="0" y1="0" x2="0" y2="1">
      <stop offset="0" stop-color="#1a281f"/>
      <stop offset="1" stop-color="#3e5e40"/>
    </linearGradient>
  </defs>
  <rect width="1200" height="800" fill="url(#sky)"/>
  <circle cx="601.1" cy="442.4" r="50.3" fill="#e0994d" opacity="0.88"/>
  <polygon points="-40.0,800.0 88.0,442.7 216.0,541.3 344.0,481.6 472.0,549.1 600.0,452.0 728.0,543.2 856.0,456.2 984.0,544.0 1112.0,457.8 1240.0,544.4 1368.0,421.8 1496.0,537.2 1240.0,800.0" fill="#2d4731"/>
  <polygon points="-40.0,800.0 120.0,518.2 280.0,604.4 440.0,529.2 600.0,606.6 760.0,519.8 920.0,604.8 1080.0,537.0 1240.0,608.2 1400.0,524.5 1560.0,605.7 1240.0,800.0" fill="#1f3324"/>
  <rect x="0" y="660" width="1200" height="140" fill="#142218"/>
  <polygon points="-40.0,800.0 66.7,612.1 173.3,682.4 280.0,626.4 386.7,685.3 493.3,616.0 600.0,683.2 706.7,634.2 813.3,686.8 920.0,604.7 1026.7,680.9 1133.3,639.4 1240.0,687.9 1346.7,610.3 1453.3,682.1 1240.0,800.0" fill="#142218" opacity="0.6"/>
  <rect x="0" y="702" width="1200" height="3" fill="#e0994d" opacity="0.28"/>
  <g>
    <rect x="160" y="162" width="880" height="188" rx="24" fill="#000000" opacity="0.38"/>
    <text x="600" y="208" text-anchor="middle" font-family="'PingFang SC','Microsoft YaHei','Hiragino Sans GB',sans-serif" font-size="27"
          fill="#e0994d" letter-spacing="7">A 级景区</text>
    <text x="600" y="274" text-anchor="middle" font-family="'PingFang SC','Microsoft YaHei','Hiragino Sans GB',sans-serif" font-size="60"
          font-weight="700" fill="#f4f5f7">云浮市罗定喜来谷动植物生态园</text>
    <text x="600" y="322" text-anchor="middle" font-family="'PingFang SC','Microsoft YaHei','Hiragino Sans GB',sans-serif" font-size="21"
          fill="#a7adb8" letter-spacing="2">自绘示意图 · 不代表实景</text>
  </g>
</svg>
