<svg xmlns="http://www.w3.org/2000/svg" viewBox="0 0 1200 800" width="1200" height="800" role="img" aria-label="广州市北纬23°8'森林营地旅游区">
  <title>广州市北纬23°8'森林营地旅游区</title>
  <desc>自绘示意图, 不代表实景</desc>
  <defs>
    <linearGradient id="sky" x1="0" y1="0" x2="0" y2="1">
      <stop offset="0" stop-color="#1b2826"/>
      <stop offset="1" stop-color="#425e50"/>
    </linearGradient>
  </defs>
  <rect width="1200" height="800" fill="url(#sky)"/>
  <circle cx="817.1" cy="447.8" r="51.8" fill="#e0da5f" opacity="0.88"/>
  <polygon points="-40.0,800.0 88.0,456.8 216.0,544.2 344.0,453.6 472.0,543.5 600.0,452.3 728.0,543.3 856.0,424.5 984.0,537.7 1112.0,418.1 1240.0,536.4 1368.0,426.6 1496.0,538.1 1240.0,800.0" fill="#30473e"/>
  <polygon points="-40.0,800.0 120.0,549.7 280.0,610.7 440.0,511.8 600.0,603.2 760.0,549.9 920.0,610.8 1080.0,512.9 1240.0,603.4 1400.0,522.1 1560.0,605.2 1240.0,800.0" fill="#22332e"/>
  <rect x="0" y="660" width="1200" height="140" fill="#15221f"/>
  <polygon points="-40.0,800.0 66.7,637.0 173.3,687.4 280.0,606.4 386.7,681.3 493.3,614.0 600.0,682.8 706.7,640.6 813.3,688.1 920.0,605.9 1026.7,681.2 1133.3,604.3 1240.0,680.9 1346.7,604.8 1453.3,681.0 1240.0,800.0" fill="#15221f" opacity="0.6"/>
  <rect x="0" y="702" width="1200" height="3" fill="#e0da5f" opacity="0.28"/>
  <g>
    <rect x="160" y="162" width="880" height="188" rx="24" fill="#000000" opacity="0.38"/>
    <text x="600" y="208" text-anchor="middle" font-family="'PingFang SC','Microsoft YaHei','Hiragino Sans GB',sans-serif" font-size="27"
          fill="#e0da5f" letter-spacing="7">A 级景区</text>
    <text x="600" y="274" text-anchor="middle" font-family="'PingFang SC','Microsoft YaHei','Hiragino Sans GB',sans-serif" font-size="49"
          font-weight="700" fill="#f4f5f7">广州市北纬23°8'森林营地旅游区</text>
    <text x="600" y="322" text-anchor="middle" font-family="'PingFang SC','Microsoft YaHei','Hiragino Sans GB',sans-serif" font-size="21"
          fill="#a7adb8" letter-spacing="2">自绘示意图 · 不代表实景</text>
  </g>
</svg>
