<svg xmlns="http://www.w3.org/2000/svg" viewBox="0 0 1200 800" width="1200" height="800" role="img" aria-label="梅州市五华县双龙山旅游区">
  <title>梅州市五华县双龙山旅游区</title>
  <desc>自绘示意图, 不代表实景</desc>
  <defs>
    <linearGradient id="sky" x1="0" y1="0" x2="0" y2="1">
      <stop offset="0" stop-color="#1b2824"/>
      <stop offset="1" stop-color="#415e4c"/>
    </linearGradient>
  </defs>
  <rect width="1200" height="800" fill="url(#sky)"/>
  <circle cx="366.0" cy="457.4" r="40.4" fill="#e0c95c" opacity="0.88"/>
  <polygon points="-40.0,800.0 88.0,470.8 216.0,547.0 344.0,476.6 472.0,548.1 600.0,452.8 728.0,543.4 856.0,449.1 984.0,542.6 1112.0,473.4 1240.0,547.5 1368.0,482.7 1496.0,549.3 1240.0,800.0" fill="#30473a"/>
  <polygon points="-40.0,800.0 120.0,557.9 280.0,612.4 440.0,562.2 600.0,613.2 760.0,511.2 920.0,603.0 1080.0,528.8 1240.0,606.6 1400.0,543.0 1560.0,609.4 1240.0,800.0" fill="#21332b"/>
  <rect x="0" y="660" width="1200" height="140" fill="#15221d"/>
  <polygon points="-40.0,800.0 66.7,605.0 173.3,681.0 280.0,619.6 386.7,683.9 493.3,631.3 600.0,686.3 706.7,608.7 813.3,681.7 920.0,605.0 1026.7,681.0 1133.3,614.7 1240.0,682.9 1346.7,645.8 1453.3,689.2 1240.0,800.0" fill="#15221d" opacity="0.6"/>
  <rect x="0" y="702" width="1200" height="3" fill="#e0c95c" opacity="0.28"/>
  <g>
    <rect x="160" y="162" width="880" height="188" rx="24" fill="#000000" opacity="0.38"/>
    <text x="600" y="208" text-anchor="middle" font-family="'PingFang SC','Microsoft YaHei','Hiragino Sans GB',sans-serif" font-size="27"
          fill="#e0c95c" letter-spacing="7">A 级景区</text>
    <text x="600" y="274" text-anchor="middle" font-family="'PingFang SC','Microsoft YaHei','Hiragino Sans GB',sans-serif" font-size="70"
          font-weight="700" fill="#f4f5f7">梅州市五华县双龙山旅游区</text>
    <text x="600" y="322" text-anchor="middle" font-family="'PingFang SC','Microsoft YaHei','Hiragino Sans GB',sans-serif" font-size="21"
          fill="#a7adb8" letter-spacing="2">自绘示意图 · 不代表实景</text>
  </g>
</svg>
