<svg xmlns="http://www.w3.org/2000/svg" viewBox="0 0 1200 800" width="1200" height="800" role="img" aria-label="佛山市顺德区李小龙乐园景区">
  <title>佛山市顺德区李小龙乐园景区</title>
  <desc>自绘示意图, 不代表实景</desc>
  <defs>
    <linearGradient id="sky" x1="0" y1="0" x2="0" y2="1">
      <stop offset="0" stop-color="#1a2820"/>
      <stop offset="1" stop-color="#405e42"/>
    </linearGradient>
  </defs>
  <rect width="1200" height="800" fill="url(#sky)"/>
  <circle cx="759.9" cy="453.0" r="46.9" fill="#e0a156" opacity="0.88"/>
  <polygon points="-40.0,800.0 88.0,417.3 216.0,536.3 344.0,445.9 472.0,542.0 600.0,448.6 728.0,542.5 856.0,428.2 984.0,538.4 1112.0,427.6 1240.0,538.3 1368.0,448.6 1496.0,542.5 1240.0,800.0" fill="#2f4733"/>
  <polygon points="-40.0,800.0 120.0,527.2 280.0,606.2 440.0,532.3 600.0,607.3 760.0,555.6 920.0,611.9 1080.0,514.1 1240.0,603.6 1400.0,541.1 1560.0,609.0 1240.0,800.0" fill="#213326"/>
  <rect x="0" y="660" width="1200" height="140" fill="#142219"/>
  <polygon points="-40.0,800.0 66.7,641.8 173.3,688.4 280.0,607.4 386.7,681.5 493.3,629.8 600.0,686.0 706.7,605.7 813.3,681.1 920.0,647.0 1026.7,689.4 1133.3,637.7 1240.0,687.5 1346.7,622.3 1453.3,684.5 1240.0,800.0" fill="#142219" opacity="0.6"/>
  <rect x="0" y="702" width="1200" height="3" fill="#e0a156" opacity="0.28"/>
  <g>
    <rect x="160" y="162" width="880" height="188" rx="24" fill="#000000" opacity="0.38"/>
    <text x="600" y="208" text-anchor="middle" font-family="'PingFang SC','Microsoft YaHei','Hiragino Sans GB',sans-serif" font-size="27"
          fill="#e0a156" letter-spacing="7">A 级景区</text>
    <text x="600" y="274" text-anchor="middle" font-family="'PingFang SC','Microsoft YaHei','Hiragino Sans GB',sans-serif" font-size="64"
          font-weight="700" fill="#f4f5f7">佛山市顺德区李小龙乐园景区</text>
    <text x="600" y="322" text-anchor="middle" font-family="'PingFang SC','Microsoft YaHei','Hiragino Sans GB',sans-serif" font-size="21"
          fill="#a7adb8" letter-spacing="2">自绘示意图 · 不代表实景</text>
  </g>
</svg>
