<svg xmlns="http://www.w3.org/2000/svg" viewBox="0 0 1200 800" width="1200" height="800" role="img" aria-label="广州市白水寨旅游区">
  <title>广州市白水寨旅游区</title>
  <desc>自绘示意图, 不代表实景</desc>
  <defs>
    <linearGradient id="sky" x1="0" y1="0" x2="0" y2="1">
      <stop offset="0" stop-color="#1a2822"/>
      <stop offset="1" stop-color="#405e46"/>
    </linearGradient>
  </defs>
  <rect width="1200" height="800" fill="url(#sky)"/>
  <circle cx="471.9" cy="457.2" r="50.0" fill="#e0b057" opacity="0.88"/>
  <polygon points="-40.0,800.0 88.0,473.4 216.0,547.5 344.0,479.5 472.0,548.7 600.0,449.1 728.0,542.6 856.0,455.4 984.0,543.9 1112.0,433.2 1240.0,539.4 1368.0,450.1 1496.0,542.8 1240.0,800.0" fill="#2f4736"/>
  <polygon points="-40.0,800.0 120.0,534.0 280.0,607.6 440.0,525.1 600.0,605.8 760.0,524.5 920.0,605.7 1080.0,547.3 1240.0,610.3 1400.0,541.5 1560.0,609.1 1240.0,800.0" fill="#213328"/>
  <rect x="0" y="660" width="1200" height="140" fill="#14221b"/>
  <polygon points="-40.0,800.0 66.7,616.0 173.3,683.2 280.0,634.8 386.7,687.0 493.3,630.1 600.0,686.0 706.7,629.9 813.3,686.0 920.0,608.6 1026.7,681.7 1133.3,628.9 1240.0,685.8 1346.7,611.1 1453.3,682.2 1240.0,800.0" fill="#14221b" opacity="0.6"/>
  <rect x="0" y="702" width="1200" height="3" fill="#e0b057" opacity="0.28"/>
  <g>
    <rect x="160" y="162" width="880" height="188" rx="24" fill="#000000" opacity="0.38"/>
    <text x="600" y="208" text-anchor="middle" font-family="'PingFang SC','Microsoft YaHei','Hiragino Sans GB',sans-serif" font-size="27"
          fill="#e0b057" letter-spacing="7">A 级景区</text>
    <text x="600" y="274" text-anchor="middle" font-family="'PingFang SC','Microsoft YaHei','Hiragino Sans GB',sans-serif" font-size="84"
          font-weight="700" fill="#f4f5f7">广州市白水寨旅游区</text>
    <text x="600" y="322" text-anchor="middle" font-family="'PingFang SC','Microsoft YaHei','Hiragino Sans GB',sans-serif" font-size="21"
          fill="#a7adb8" letter-spacing="2">自绘示意图 · 不代表实景</text>
  </g>
</svg>
