<svg xmlns="http://www.w3.org/2000/svg" viewBox="0 0 1200 800" width="1200" height="800" role="img" aria-label="梅州市鹿湖温泉度假村">
  <title>梅州市鹿湖温泉度假村</title>
  <desc>自绘示意图, 不代表实景</desc>
  <defs>
    <linearGradient id="sky" x1="0" y1="0" x2="0" y2="1">
      <stop offset="0" stop-color="#1b2821"/>
      <stop offset="1" stop-color="#415e44"/>
    </linearGradient>
  </defs>
  <rect width="1200" height="800" fill="url(#sky)"/>
  <circle cx="590.5" cy="434.5" r="46.2" fill="#e0a95a" opacity="0.88"/>
  <polygon points="-40.0,800.0 88.0,475.3 216.0,547.9 344.0,447.2 472.0,542.2 600.0,449.1 728.0,542.6 856.0,434.5 984.0,539.7 1112.0,439.0 1240.0,540.6 1368.0,424.2 1496.0,537.6 1240.0,800.0" fill="#2f4735"/>
  <polygon points="-40.0,800.0 120.0,515.9 280.0,604.0 440.0,511.0 600.0,603.0 760.0,519.4 920.0,604.7 1080.0,550.1 1240.0,610.8 1400.0,547.5 1560.0,610.3 1240.0,800.0" fill="#213327"/>
  <rect x="0" y="660" width="1200" height="140" fill="#15221a"/>
  <polygon points="-40.0,800.0 66.7,611.8 173.3,682.4 280.0,637.2 386.7,687.4 493.3,635.0 600.0,687.0 706.7,627.9 813.3,685.6 920.0,634.7 1026.7,686.9 1133.3,634.0 1240.0,686.8 1346.7,625.0 1453.3,685.0 1240.0,800.0" fill="#15221a" opacity="0.6"/>
  <rect x="0" y="702" width="1200" height="3" fill="#e0a95a" opacity="0.28"/>
  <g>
    <rect x="160" y="162" width="880" height="188" rx="24" fill="#000000" opacity="0.38"/>
    <text x="600" y="208" text-anchor="middle" font-family="'PingFang SC','Microsoft YaHei','Hiragino Sans GB',sans-serif" font-size="27"
          fill="#e0a95a" letter-spacing="7">A 级景区</text>
    <text x="600" y="274" text-anchor="middle" font-family="'PingFang SC','Microsoft YaHei','Hiragino Sans GB',sans-serif" font-size="84"
          font-weight="700" fill="#f4f5f7">梅州市鹿湖温泉度假村</text>
    <text x="600" y="322" text-anchor="middle" font-family="'PingFang SC','Microsoft YaHei','Hiragino Sans GB',sans-serif" font-size="21"
          fill="#a7adb8" letter-spacing="2">自绘示意图 · 不代表实景</text>
  </g>
</svg>
