<svg xmlns="http://www.w3.org/2000/svg" viewBox="0 0 1200 800" width="1200" height="800" role="img" aria-label="延边州六鼎山文化旅游区">
  <title>延边州六鼎山文化旅游区</title>
  <desc>自绘示意图, 不代表实景</desc>
  <defs>
    <linearGradient id="sky" x1="0" y1="0" x2="0" y2="1">
      <stop offset="0" stop-color="#192821"/>
      <stop offset="1" stop-color="#3c5e42"/>
    </linearGradient>
  </defs>
  <rect width="1200" height="800" fill="url(#sky)"/>
  <circle cx="609.5" cy="453.6" r="40.6" fill="#e0a746" opacity="0.88"/>
  <polygon points="-40.0,800.0 88.0,446.4 216.0,542.1 344.0,454.9 472.0,543.8 600.0,455.2 728.0,543.8 856.0,471.3 984.0,547.1 1112.0,467.9 1240.0,546.4 1368.0,429.8 1496.0,538.8 1240.0,800.0" fill="#2c4733"/>
  <polygon points="-40.0,800.0 120.0,515.9 280.0,604.0 440.0,537.2 600.0,608.2 760.0,519.2 920.0,604.6 1080.0,530.5 1240.0,606.9 1400.0,542.5 1560.0,609.3 1240.0,800.0" fill="#1e3326"/>
  <rect x="0" y="660" width="1200" height="140" fill="#132219"/>
  <polygon points="-40.0,800.0 66.7,611.6 173.3,682.3 280.0,620.9 386.7,684.2 493.3,630.9 600.0,686.2 706.7,622.5 813.3,684.5 920.0,610.8 1026.7,682.2 1133.3,630.4 1240.0,686.1 1346.7,645.0 1453.3,689.0 1240.0,800.0" fill="#132219" opacity="0.6"/>
  <rect x="0" y="702" width="1200" height="3" fill="#e0a746" opacity="0.28"/>
  <g>
    <rect x="160" y="162" width="880" height="188" rx="24" fill="#000000" opacity="0.38"/>
    <text x="600" y="208" text-anchor="middle" font-family="'PingFang SC','Microsoft YaHei','Hiragino Sans GB',sans-serif" font-size="27"
          fill="#e0a746" letter-spacing="7">A 级景区</text>
    <text x="600" y="274" text-anchor="middle" font-family="'PingFang SC','Microsoft YaHei','Hiragino Sans GB',sans-serif" font-size="76"
          font-weight="700" fill="#f4f5f7">延边州六鼎山文化旅游区</text>
    <text x="600" y="322" text-anchor="middle" font-family="'PingFang SC','Microsoft YaHei','Hiragino Sans GB',sans-serif" font-size="21"
          fill="#a7adb8" letter-spacing="2">自绘示意图 · 不代表实景</text>
  </g>
</svg>
