<svg xmlns="http://www.w3.org/2000/svg" viewBox="0 0 1200 800" width="1200" height="800" role="img" aria-label="昆明市昆明世博园景区">
  <title>昆明市昆明世博园景区</title>
  <desc>自绘示意图, 不代表实景</desc>
  <defs>
    <linearGradient id="sky" x1="0" y1="0" x2="0" y2="1">
      <stop offset="0" stop-color="#192825"/>
      <stop offset="1" stop-color="#3c5e4c"/>
    </linearGradient>
  </defs>
  <rect width="1200" height="800" fill="url(#sky)"/>
  <circle cx="740.8" cy="438.3" r="51.2" fill="#e0d644" opacity="0.88"/>
  <polygon points="-40.0,800.0 88.0,471.9 216.0,547.2 344.0,429.5 472.0,538.7 600.0,421.0 728.0,537.0 856.0,481.1 984.0,549.0 1112.0,476.6 1240.0,548.1 1368.0,459.1 1496.0,544.6 1240.0,800.0" fill="#2c473b"/>
  <polygon points="-40.0,800.0 120.0,545.6 280.0,609.9 440.0,517.8 600.0,604.4 760.0,562.2 920.0,613.2 1080.0,524.5 1240.0,605.7 1400.0,519.0 1560.0,604.6 1240.0,800.0" fill="#1e332c"/>
  <rect x="0" y="660" width="1200" height="140" fill="#13221e"/>
  <polygon points="-40.0,800.0 66.7,647.2 173.3,689.4 280.0,616.0 386.7,683.2 493.3,611.5 600.0,682.3 706.7,626.9 813.3,685.4 920.0,613.5 1026.7,682.7 1133.3,605.9 1240.0,681.2 1346.7,606.9 1453.3,681.4 1240.0,800.0" fill="#13221e" opacity="0.6"/>
  <rect x="0" y="702" width="1200" height="3" fill="#e0d644" opacity="0.28"/>
  <g>
    <rect x="160" y="162" width="880" height="188" rx="24" fill="#000000" opacity="0.38"/>
    <text x="600" y="208" text-anchor="middle" font-family="'PingFang SC','Microsoft YaHei','Hiragino Sans GB',sans-serif" font-size="27"
          fill="#e0d644" letter-spacing="7">A 级景区</text>
    <text x="600" y="274" text-anchor="middle" font-family="'PingFang SC','Microsoft YaHei','Hiragino Sans GB',sans-serif" font-size="84"
          font-weight="700" fill="#f4f5f7">昆明市昆明世博园景区</text>
    <text x="600" y="322" text-anchor="middle" font-family="'PingFang SC','Microsoft YaHei','Hiragino Sans GB',sans-serif" font-size="21"
          fill="#a7adb8" letter-spacing="2">自绘示意图 · 不代表实景</text>
  </g>
</svg>
