<svg xmlns="http://www.w3.org/2000/svg" viewBox="0 0 1200 800" width="1200" height="800" role="img" aria-label="张家界国家森林公园">
  <title>张家界国家森林公园</title>
  <desc>自绘示意图, 不代表实景</desc>
  <defs>
    <linearGradient id="sky" x1="0" y1="0" x2="0" y2="1">
      <stop offset="0" stop-color="#1a233a"/>
      <stop offset="1" stop-color="#3d585c"/>
    </linearGradient>
  </defs>
  <rect width="1200" height="800" fill="url(#sky)"/>
  <circle cx="575.6" cy="459.4" r="49.7" fill="#f48b2c" opacity="0.88"/>
  <polygon points="-40.0,800.0 88.0,468.4 216.0,546.5 344.0,468.9 472.0,546.6 600.0,445.4 728.0,541.9 856.0,471.3 984.0,547.1 1112.0,479.5 1240.0,548.7 1368.0,453.9 1496.0,543.6 1240.0,800.0" fill="#2b3c50"/>
  <polygon points="-40.0,800.0 120.0,538.2 280.0,608.4 440.0,535.0 600.0,607.8 760.0,510.4 920.0,602.9 1080.0,546.0 1240.0,610.0 1400.0,519.0 1560.0,604.6 1240.0,800.0" fill="#212f42"/>
  <rect x="0" y="660" width="1200" height="140" fill="#151f2f"/>
  <polygon points="-40.0,800.0 66.7,604.3 173.3,680.9 280.0,633.8 386.7,686.8 493.3,611.5 600.0,682.3 706.7,626.2 813.3,685.2 920.0,610.6 1026.7,682.1 1133.3,609.3 1240.0,681.9 1346.7,612.3 1453.3,682.5 1240.0,800.0" fill="#151f2f" opacity="0.6"/>
  <rect x="0" y="702" width="1200" height="3" fill="#f48b2c" opacity="0.28"/>
  <g>
    <rect x="160" y="162" width="880" height="188" rx="24" fill="#000000" opacity="0.38"/>
    <text x="600" y="208" text-anchor="middle" font-family="'PingFang SC','Microsoft YaHei','Hiragino Sans GB',sans-serif" font-size="27"
          fill="#f48b2c" letter-spacing="7">自然风光</text>
    <text x="600" y="274" text-anchor="middle" font-family="'PingFang SC','Microsoft YaHei','Hiragino Sans GB',sans-serif" font-size="84"
          font-weight="700" fill="#f4f5f7">张家界国家森林公园</text>
    <text x="600" y="322" text-anchor="middle" font-family="'PingFang SC','Microsoft YaHei','Hiragino Sans GB',sans-serif" font-size="21"
          fill="#a7adb8" letter-spacing="2">自绘示意图 · 不代表实景</text>
  </g>
</svg>
